<svg width="39" height="36" viewBox="0 0 39 36" fill="none" xmlns="http://www.w3.org/2000/svg">
<path d="M36.4285 13.3215V32.9997C36.4285 34.325 35.2797 35.3997 33.8631 35.3997H5.64347C4.22687 35.3997 3.07805 34.325 3.07805 32.9997C3.07805 14.3965 3.07637 17.8814 3.08366 13.3215H36.4285Z" fill="#D1E7FF"/>
<path d="M36.4284 13.3215V17.8664C36.4284 18.8499 35.5857 19.6647 34.5343 19.6687C34.5226 19.6687 4.99246 19.6687 4.97113 19.6687C3.92011 19.6644 3.07793 18.8496 3.07793 17.8664C3.07793 16.5546 3.07697 17.4602 3.08354 13.3215H36.4284Z" fill="#B9DCFF"/>
<path d="M26.247 24.6749V35.3998H13.2595V24.6749C13.2595 23.3496 14.4084 22.2749 15.825 22.2749H23.6816C25.0982 22.2749 26.247 23.3496 26.247 24.6749Z" fill="#E8F3FF"/>
<path d="M38.3525 13.3215C38.3525 15.7228 36.271 17.6715 33.7026 17.6715C31.1348 17.6715 29.0528 15.7237 29.0528 13.3215C29.0528 15.7237 26.9708 17.6715 24.403 17.6715C21.8352 17.6715 19.7532 15.7237 19.7532 13.3215C19.7532 15.7237 17.6712 17.6715 15.1034 17.6715C12.5355 17.6715 10.4535 15.7237 10.4535 13.3215C10.4495 15.708 8.34991 17.6715 5.80373 17.6715C3.26068 17.6715 1.15792 15.7105 1.15391 13.3215C1.15391 9.54093 1.14285 9.77358 1.18197 9.60003C1.22045 9.4297 0.953727 10.0328 4.98761 1.32309C5.19124 0.884345 5.65381 0.600098 6.16449 0.600098H33.3419C33.8526 0.600098 34.3151 0.884345 34.5188 1.32309C38.5556 10.0392 38.2858 9.42955 38.3244 9.60003C38.3634 9.7732 38.3525 9.5368 38.3525 13.3215Z" fill="#B9DCFF"/>
<path d="M38.3525 13.3215C38.3525 15.7227 36.2711 17.6714 33.7027 17.6714C31.1349 17.6714 29.0529 15.7237 29.0529 13.3215C29.0529 15.7237 26.9709 17.6714 24.4031 17.6714C21.8352 17.6714 19.7532 15.7237 19.7532 13.3215C19.7532 15.7237 17.6712 17.6714 15.1034 17.6714C12.5356 17.6714 10.4536 15.7237 10.4536 13.3215C10.4496 15.7079 8.34994 17.6714 5.80376 17.6714C3.26071 17.6714 1.15794 15.7104 1.15393 13.3215C1.1476 9.5203 1.14856 9.74837 1.18199 9.6001H38.3245C38.3635 9.77327 38.3525 9.53687 38.3525 13.3215Z" fill="#B9DCFF"/>
<path d="M32.9955 3.8062C24.8521 2.7577 16.6336 4.10253 9.98625 8.78839C9.23803 9.31586 8.32602 9.60011 7.38916 9.60011H1.18213C1.22061 9.42979 0.953887 10.0329 4.98777 1.3231C5.1914 0.884348 5.65397 0.600098 6.16465 0.600098H33.3421C33.8532 0.600098 34.3156 0.884048 34.5188 1.3228L34.6975 1.70845C35.1982 2.78943 34.2431 3.96685 32.9955 3.8062Z" fill="white"/>
<path d="M37.0698 20.325V33C37.0698 34.6542 35.6312 36 33.863 36H5.64338C3.87517 36 2.43661 34.6542 2.43661 33V20.325C2.43661 19.9937 2.72377 19.725 3.07796 19.725C3.43215 19.725 3.71932 19.9937 3.71932 20.325V33C3.71932 33.9925 4.58242 34.8 5.64338 34.8H12.6181V24.675C12.6181 23.0208 14.0567 21.675 15.8249 21.675H23.6815C25.4497 21.675 26.8883 23.0208 26.8883 24.675V32.4C26.8883 32.7313 26.6011 33 26.2469 33C25.8927 33 25.6055 32.7313 25.6055 32.4V24.675C25.6055 23.6825 24.7424 22.875 23.6815 22.875H15.8249C14.764 22.875 13.9008 23.6825 13.9008 24.675V34.8H19.1118V25.35C19.1118 25.0187 19.399 24.75 19.7532 24.75C20.1074 24.75 20.3945 25.0187 20.3945 25.35V34.8H33.863C34.9239 34.8 35.787 33.9925 35.787 33V20.325C35.787 19.9937 36.0742 19.725 36.4284 19.725C36.7826 19.725 37.0698 19.9936 37.0698 20.325ZM4.68135 9.6C4.68135 9.93135 4.96852 10.2 5.3227 10.2C40.2178 10.2 38.4877 10.2584 38.7426 10.0754C38.8759 9.9795 38.963 9.84112 38.9869 9.68303C39.0227 9.4419 39.2528 10.0349 34.7721 0.361425C34.6704 0.141975 34.4392 0 34.1836 0H5.32262C5.06704 0 4.83576 0.14205 4.73418 0.361425L0.565375 9.36143C0.4917 9.52058 0.512464 9.26798 0.512464 13.3224C0.517114 16.0513 2.89069 18.2714 5.80364 18.2714C7.80619 18.2714 9.5538 17.2222 10.4521 15.6797C12.4584 19.129 17.7431 19.1328 19.7531 15.682C21.7615 19.13 27.0439 19.1308 29.0527 15.682C29.9504 17.2232 31.6982 18.2714 33.7026 18.2714C36.6202 18.2714 38.9937 16.0509 38.9937 13.3214C38.9937 12.9901 38.7066 12.7214 38.3524 12.7214C37.9982 12.7214 37.711 12.9901 37.711 13.3214C37.711 15.3892 35.9128 17.0714 33.7026 17.0714C31.4923 17.0714 29.6941 15.3892 29.6941 13.3214C29.6941 12.9901 29.4069 12.7214 29.0527 12.7214C28.6986 12.7214 28.4114 12.9901 28.4114 13.3214C28.4114 15.3892 26.6132 17.0714 24.4029 17.0714C22.1927 17.0714 20.3945 15.3892 20.3945 13.3214C20.3945 12.9901 20.1073 12.7214 19.7531 12.7214C19.3989 12.7214 19.1117 12.9901 19.1117 13.3214C19.1117 15.3892 17.3136 17.0714 15.1033 17.0714C12.9422 17.0714 11.0948 15.4466 11.0948 13.2914C11.0948 12.9601 10.8076 12.6914 10.4535 12.6914C10.0993 12.6914 9.81211 12.9601 9.81211 13.2914C9.81211 15.4284 7.97631 17.0714 5.80364 17.0714C3.5969 17.0714 1.79862 15.3887 1.79517 13.3214V9.72435L5.74375 1.2H33.7626L37.3755 9H5.3227C4.96844 9 4.68135 9.26858 4.68135 9.6Z" fill="#007FFC"/>
</svg>
