<svg width="39" height="36" viewBox="0 0 39 36" fill="none" xmlns="http://www.w3.org/2000/svg">
<path d="M35.9187 13.3215V32.9997C35.9187 34.325 34.7699 35.3997 33.3533 35.3997H5.1337C3.71711 35.3997 2.56828 34.325 2.56828 32.9997C2.56828 14.3965 2.5666 17.8814 2.57389 13.3215H35.9187Z" fill="#E1F4F5"/>
<path d="M35.9187 13.3215V17.8664C35.9187 18.8499 35.0759 19.6647 34.0246 19.6687C34.0129 19.6687 4.48269 19.6687 4.46137 19.6687C3.41034 19.6644 2.56816 18.8496 2.56816 17.8664C2.56816 16.5546 2.5672 17.4602 2.57378 13.3215H35.9187Z" fill="#CAEFF2"/>
<path d="M25.7372 24.6749V35.3998H12.7498V24.6749C12.7498 23.3496 13.8986 22.2749 15.3152 22.2749H23.1718C24.5884 22.2749 25.7372 23.3496 25.7372 24.6749Z" fill="#F4FEFF"/>
<path d="M37.8427 13.3215C37.8427 15.7228 35.7613 17.6715 33.1929 17.6715C30.6251 17.6715 28.5431 15.7237 28.5431 13.3215C28.5431 15.7237 26.4611 17.6715 23.8932 17.6715C21.3254 17.6715 19.2434 15.7237 19.2434 13.3215C19.2434 15.7237 17.1614 17.6715 14.5936 17.6715C12.0258 17.6715 9.94378 15.7237 9.94378 13.3215C9.93977 15.708 7.84014 17.6715 5.29396 17.6715C2.75091 17.6715 0.648153 15.7105 0.644144 13.3215C0.644144 9.54093 0.633081 9.77358 0.672203 9.60003C0.710685 9.4297 0.443961 10.0328 4.47784 1.32309C4.68147 0.884345 5.14405 0.600098 5.65473 0.600098H32.8321C33.3428 0.600098 33.8054 0.884345 34.009 1.32309C38.0458 10.0392 37.7761 9.42955 37.8146 9.60003C37.8537 9.7732 37.8427 9.5368 37.8427 13.3215Z" fill="#CAEFF2"/>
<path d="M37.8428 13.3215C37.8428 15.7227 35.7613 17.6714 33.1929 17.6714C30.6251 17.6714 28.5431 15.7237 28.5431 13.3215C28.5431 15.7237 26.4611 17.6714 23.8933 17.6714C21.3255 17.6714 19.2435 15.7237 19.2435 13.3215C19.2435 15.7237 17.1615 17.6714 14.5936 17.6714C12.0258 17.6714 9.94382 15.7237 9.94382 13.3215C9.93981 15.7079 7.84017 17.6714 5.29399 17.6714C2.75094 17.6714 0.648177 15.7104 0.644169 13.3215C0.637835 9.5203 0.638797 9.74837 0.672228 9.6001H37.8147C37.8537 9.77327 37.8428 9.53687 37.8428 13.3215Z" fill="#CAEFF2"/>
<path d="M32.4857 3.8062C24.3424 2.7577 16.1238 4.10253 9.47648 8.78839C8.72826 9.31586 7.81625 9.60011 6.87939 9.60011H0.672363C0.710845 9.42979 0.444121 10.0329 4.478 1.3231C4.68163 0.884348 5.14421 0.600098 5.65489 0.600098H32.8323C33.3435 0.600098 33.8058 0.884048 34.009 1.3228L34.1877 1.70845C34.6885 2.78943 33.7333 3.96685 32.4857 3.8062Z" fill="white"/>
<path d="M36.56 20.325V33C36.56 34.6542 35.1214 36 33.3532 36H5.13362C3.3654 36 1.92684 34.6542 1.92684 33V20.325C1.92684 19.9937 2.21401 19.725 2.5682 19.725C2.92238 19.725 3.20955 19.9937 3.20955 20.325V33C3.20955 33.9925 4.07265 34.8 5.13362 34.8H12.1083V24.675C12.1083 23.0208 13.5469 21.675 15.3151 21.675H23.1717C24.9399 21.675 26.3785 23.0208 26.3785 24.675V32.4C26.3785 32.7313 26.0913 33 25.7371 33C25.3829 33 25.0958 32.7313 25.0958 32.4V24.675C25.0958 23.6825 24.2326 22.875 23.1717 22.875H15.3151C14.2542 22.875 13.3911 23.6825 13.3911 24.675V34.8H18.6021V25.35C18.6021 25.0187 18.8892 24.75 19.2434 24.75C19.5976 24.75 19.8848 25.0187 19.8848 25.35V34.8H33.3532C34.4141 34.8 35.2773 33.9925 35.2773 33V20.325C35.2773 19.9937 35.5644 19.725 35.9186 19.725C36.2728 19.725 36.56 19.9936 36.56 20.325ZM4.17158 9.6C4.17158 9.93135 4.45875 10.2 4.81294 10.2C39.7081 10.2 37.9779 10.2584 38.2329 10.0754C38.3661 9.9795 38.4533 9.84112 38.4772 9.68303C38.5129 9.4419 38.7431 10.0349 34.2623 0.361425C34.1606 0.141975 33.9295 0 33.6738 0H4.81286C4.55728 0 4.32599 0.14205 4.22441 0.361425L0.0556098 9.36143C-0.0180658 9.52058 0.00269808 9.26798 0.00269808 13.3224C0.0073479 16.0513 2.38092 18.2714 5.29387 18.2714C7.29642 18.2714 9.04403 17.2222 9.94233 15.6797C11.9486 19.129 17.2333 19.1328 19.2433 15.682C21.2517 19.13 26.5341 19.1308 28.543 15.682C29.4406 17.2232 31.1884 18.2714 33.1928 18.2714C36.1104 18.2714 38.484 16.0509 38.484 13.3214C38.484 12.9901 38.1968 12.7214 37.8426 12.7214C37.4884 12.7214 37.2013 12.9901 37.2013 13.3214C37.2013 15.3892 35.4031 17.0714 33.1928 17.0714C30.9825 17.0714 29.1843 15.3892 29.1843 13.3214C29.1843 12.9901 28.8972 12.7214 28.543 12.7214C28.1888 12.7214 27.9016 12.9901 27.9016 13.3214C27.9016 15.3892 26.1034 17.0714 23.8932 17.0714C21.6829 17.0714 19.8847 15.3892 19.8847 13.3214C19.8847 12.9901 19.5975 12.7214 19.2433 12.7214C18.8891 12.7214 18.602 12.9901 18.602 13.3214C18.602 15.3892 16.8038 17.0714 14.5935 17.0714C12.4324 17.0714 10.585 15.4466 10.585 13.2914C10.585 12.9601 10.2979 12.6914 9.94369 12.6914C9.58951 12.6914 9.30234 12.9601 9.30234 13.2914C9.30234 15.4284 7.46654 17.0714 5.29387 17.0714C3.08713 17.0714 1.28885 15.3887 1.28541 13.3214V9.72435L5.23399 1.2H33.2528L36.8658 9H4.81294C4.45867 9 4.17158 9.26858 4.17158 9.6Z" fill="#52C29D"/>
</svg>
