<svg width="194" height="33" viewBox="0 0 194 33" fill="none" xmlns="http://www.w3.org/2000/svg">
<path d="M44.132 29.5001C43.712 29.5001 43.362 29.3601 43.082 29.0801C42.8254 28.8001 42.697 28.4618 42.697 28.0651V6.4001C42.697 6.00343 42.8254 5.67676 43.082 5.4201C43.362 5.1401 43.7004 5.0001 44.097 5.0001H56.382C56.7787 5.0001 57.117 5.12843 57.397 5.3851C57.677 5.64176 57.817 5.96843 57.817 6.3651C57.817 6.73843 57.677 7.05343 57.397 7.3101C57.117 7.56676 56.7787 7.6951 56.382 7.6951H45.357L45.567 7.4151V15.9901L45.392 15.6051H54.807C55.2037 15.6051 55.542 15.7451 55.822 16.0251C56.102 16.2818 56.242 16.6084 56.242 17.0051C56.242 17.3551 56.102 17.6701 55.822 17.9501C55.542 18.2068 55.2037 18.3351 54.807 18.3351H45.322L45.567 18.0201V28.0651C45.567 28.4618 45.427 28.8001 45.147 29.0801C44.867 29.3601 44.5287 29.5001 44.132 29.5001Z" fill="#16133D"/>
<path d="M63.0894 29.5001C62.6928 29.5001 62.3544 29.3601 62.0744 29.0801C61.8178 28.8001 61.6894 28.4618 61.6894 28.0651V12.8051C61.6894 12.4084 61.8178 12.0818 62.0744 11.8251C62.3544 11.5451 62.6928 11.4051 63.0894 11.4051C63.5094 11.4051 63.8478 11.5451 64.1044 11.8251C64.3611 12.0818 64.4894 12.4084 64.4894 12.8051V17.4251L64.0694 16.6901C64.2094 15.9668 64.4544 15.2668 64.8044 14.5901C65.1778 13.8901 65.6444 13.2718 66.2044 12.7351C66.7644 12.1751 67.4061 11.7434 68.1294 11.4401C68.8528 11.1134 69.6461 10.9501 70.5094 10.9501C71.0228 10.9501 71.4894 11.0784 71.9094 11.3351C72.3528 11.5684 72.5744 11.9068 72.5744 12.3501C72.5744 12.8401 72.4461 13.2018 72.1894 13.4351C71.9328 13.6684 71.6411 13.7851 71.3144 13.7851C71.0111 13.7851 70.7194 13.7268 70.4394 13.6101C70.1594 13.4701 69.8094 13.4001 69.3894 13.4001C68.8061 13.4001 68.2228 13.5634 67.6394 13.8901C67.0794 14.1934 66.5544 14.6368 66.0644 15.2201C65.5978 15.8034 65.2128 16.4684 64.9094 17.2151C64.6294 17.9384 64.4894 18.7201 64.4894 19.5601V28.0651C64.4894 28.4618 64.3494 28.8001 64.0694 29.0801C63.8128 29.3601 63.4861 29.5001 63.0894 29.5001Z" fill="#16133D"/>
<path d="M83.3162 29.8501C81.4495 29.8501 79.8162 29.4534 78.4162 28.6601C77.0162 27.8668 75.9195 26.7818 75.1262 25.4051C74.3562 24.0051 73.9712 22.3951 73.9712 20.5751C73.9712 18.5451 74.3678 16.8184 75.1612 15.3951C75.9778 13.9484 77.0278 12.8518 78.3112 12.1051C79.6178 11.3351 80.9945 10.9501 82.4412 10.9501C83.5145 10.9501 84.5528 11.1484 85.5562 11.5451C86.5595 11.9418 87.4462 12.5251 88.2162 13.2951C88.9862 14.0418 89.6045 14.9518 90.0712 16.0251C90.5378 17.0751 90.7828 18.2534 90.8062 19.5601C90.8062 19.9334 90.6662 20.2484 90.3862 20.5051C90.1062 20.7618 89.7795 20.8901 89.4062 20.8901H75.5812L74.9512 18.4751H88.4262L87.8662 18.9651V18.1951C87.7728 17.2384 87.4462 16.4218 86.8862 15.7451C86.3495 15.0451 85.6845 14.5084 84.8912 14.1351C84.1212 13.7618 83.3045 13.5751 82.4412 13.5751C81.7412 13.5751 81.0412 13.7034 80.3412 13.9601C79.6645 14.1934 79.0462 14.5901 78.4862 15.1501C77.9495 15.6868 77.5062 16.3868 77.1562 17.2501C76.8295 18.1134 76.6662 19.1518 76.6662 20.3651C76.6662 21.7184 76.9345 22.9084 77.4712 23.9351C78.0312 24.9618 78.8012 25.7784 79.7812 26.3851C80.7612 26.9684 81.9045 27.2601 83.2112 27.2601C84.0278 27.2601 84.7395 27.1551 85.3462 26.9451C85.9528 26.7351 86.4778 26.4784 86.9212 26.1751C87.3645 25.8484 87.7378 25.5218 88.0412 25.1951C88.3445 24.9851 88.6362 24.8801 88.9162 24.8801C89.2662 24.8801 89.5462 24.9968 89.7562 25.2301C89.9895 25.4634 90.1062 25.7434 90.1062 26.0701C90.1062 26.4668 89.9195 26.8168 89.5462 27.1201C88.8928 27.8434 88.0062 28.4851 86.8862 29.0451C85.7662 29.5818 84.5762 29.8501 83.3162 29.8501Z" fill="#16133D"/>
<path d="M103.38 29.8501C101.513 29.8501 99.8796 29.4534 98.4796 28.6601C97.0796 27.8668 95.983 26.7818 95.1896 25.4051C94.4196 24.0051 94.0346 22.3951 94.0346 20.5751C94.0346 18.5451 94.4313 16.8184 95.2246 15.3951C96.0413 13.9484 97.0913 12.8518 98.3746 12.1051C99.6813 11.3351 101.058 10.9501 102.505 10.9501C103.578 10.9501 104.616 11.1484 105.62 11.5451C106.623 11.9418 107.51 12.5251 108.28 13.2951C109.05 14.0418 109.668 14.9518 110.135 16.0251C110.601 17.0751 110.846 18.2534 110.87 19.5601C110.87 19.9334 110.73 20.2484 110.45 20.5051C110.17 20.7618 109.843 20.8901 109.47 20.8901H95.6446L95.0146 18.4751H108.49L107.93 18.9651V18.1951C107.836 17.2384 107.51 16.4218 106.95 15.7451C106.413 15.0451 105.748 14.5084 104.955 14.1351C104.185 13.7618 103.368 13.5751 102.505 13.5751C101.805 13.5751 101.105 13.7034 100.405 13.9601C99.728 14.1934 99.1096 14.5901 98.5496 15.1501C98.013 15.6868 97.5696 16.3868 97.2196 17.2501C96.893 18.1134 96.7296 19.1518 96.7296 20.3651C96.7296 21.7184 96.998 22.9084 97.5346 23.9351C98.0946 24.9618 98.8646 25.7784 99.8446 26.3851C100.825 26.9684 101.968 27.2601 103.275 27.2601C104.091 27.2601 104.803 27.1551 105.41 26.9451C106.016 26.7351 106.541 26.4784 106.985 26.1751C107.428 25.8484 107.801 25.5218 108.105 25.1951C108.408 24.9851 108.7 24.8801 108.98 24.8801C109.33 24.8801 109.61 24.9968 109.82 25.2301C110.053 25.4634 110.17 25.7434 110.17 26.0701C110.17 26.4668 109.983 26.8168 109.61 27.1201C108.956 27.8434 108.07 28.4851 106.95 29.0451C105.83 29.5818 104.64 29.8501 103.38 29.8501Z" fill="#16133D"/>
<path d="M123.828 11.1251C125.368 11.1251 126.581 11.4634 127.468 12.1401C128.378 12.7934 129.02 13.6801 129.393 14.8001C129.79 15.8968 129.988 17.1218 129.988 18.4751V28.0651C129.988 28.4618 129.848 28.8001 129.568 29.0801C129.311 29.3601 128.985 29.5001 128.588 29.5001C128.191 29.5001 127.853 29.3601 127.573 29.0801C127.316 28.8001 127.188 28.4618 127.188 28.0651V18.4751C127.188 17.5884 127.06 16.7951 126.803 16.0951C126.546 15.3718 126.115 14.8001 125.508 14.3801C124.925 13.9368 124.12 13.7151 123.093 13.7151C122.136 13.7151 121.261 13.9368 120.468 14.3801C119.675 14.8001 119.045 15.3718 118.578 16.0951C118.111 16.7951 117.878 17.5884 117.878 18.4751V28.0651C117.878 28.4618 117.738 28.8001 117.458 29.0801C117.201 29.3601 116.875 29.5001 116.478 29.5001C116.081 29.5001 115.743 29.3601 115.463 29.0801C115.206 28.8001 115.078 28.4618 115.078 28.0651V5.0001C115.078 4.60343 115.206 4.27676 115.463 4.0201C115.743 3.7401 116.081 3.6001 116.478 3.6001C116.898 3.6001 117.236 3.7401 117.493 4.0201C117.75 4.27676 117.878 4.60343 117.878 5.0001V15.4651L117.178 16.2351C117.295 15.6284 117.551 15.0218 117.948 14.4151C118.345 13.7851 118.846 13.2251 119.453 12.7351C120.06 12.2451 120.736 11.8601 121.483 11.5801C122.23 11.2768 123.011 11.1251 123.828 11.1251Z" fill="#16133D"/>
<path d="M150.086 11.2301C150.482 11.2301 150.809 11.3701 151.066 11.6501C151.346 11.9068 151.486 12.2334 151.486 12.6301V28.0651C151.486 28.4618 151.346 28.8001 151.066 29.0801C150.809 29.3601 150.482 29.5001 150.086 29.5001C149.666 29.5001 149.327 29.3601 149.071 29.0801C148.814 28.8001 148.686 28.4618 148.686 28.0651V24.7401L149.351 24.6701C149.351 25.1834 149.176 25.7434 148.826 26.3501C148.476 26.9568 147.997 27.5284 147.391 28.0651C146.784 28.5784 146.061 29.0101 145.221 29.3601C144.404 29.6868 143.517 29.8501 142.561 29.8501C140.974 29.8501 139.551 29.4418 138.291 28.6251C137.031 27.7851 136.027 26.6534 135.281 25.2301C134.557 23.8068 134.196 22.1851 134.196 20.3651C134.196 18.5218 134.557 16.9001 135.281 15.5001C136.027 14.0768 137.031 12.9684 138.291 12.1751C139.551 11.3584 140.951 10.9501 142.491 10.9501C143.494 10.9501 144.427 11.1134 145.291 11.4401C146.154 11.7668 146.901 12.2101 147.531 12.7701C148.184 13.3301 148.686 13.9484 149.036 14.6251C149.409 15.3018 149.596 15.9784 149.596 16.6551L148.686 16.4451V12.6301C148.686 12.2334 148.814 11.9068 149.071 11.6501C149.327 11.3701 149.666 11.2301 150.086 11.2301ZM142.876 27.2601C144.042 27.2601 145.069 26.9568 145.956 26.3501C146.866 25.7434 147.566 24.9268 148.056 23.9001C148.569 22.8501 148.826 21.6718 148.826 20.3651C148.826 19.0818 148.569 17.9268 148.056 16.9001C147.566 15.8501 146.866 15.0334 145.956 14.4501C145.069 13.8434 144.042 13.5401 142.876 13.5401C141.732 13.5401 140.706 13.8318 139.796 14.4151C138.909 14.9984 138.209 15.8034 137.696 16.8301C137.182 17.8568 136.926 19.0351 136.926 20.3651C136.926 21.6718 137.171 22.8501 137.661 23.9001C138.174 24.9268 138.874 25.7434 139.761 26.3501C140.671 26.9568 141.709 27.2601 142.876 27.2601Z" fill="#16133D"/>
<path d="M165.67 10.9501C167.256 10.9501 168.505 11.2768 169.415 11.9301C170.325 12.5834 170.966 13.4584 171.34 14.5551C171.736 15.6518 171.935 16.8768 171.935 18.2301V28.0651C171.935 28.4618 171.795 28.8001 171.515 29.0801C171.258 29.3601 170.931 29.5001 170.535 29.5001C170.138 29.5001 169.8 29.3601 169.52 29.0801C169.263 28.8001 169.135 28.4618 169.135 28.0651V18.3001C169.135 17.4134 168.995 16.6201 168.715 15.9201C168.458 15.1968 168.015 14.6251 167.385 14.2051C166.778 13.7618 165.938 13.5401 164.865 13.5401C163.885 13.5401 162.986 13.7618 162.17 14.2051C161.353 14.6251 160.7 15.1968 160.21 15.9201C159.72 16.6201 159.475 17.4134 159.475 18.3001V28.0651C159.475 28.4618 159.335 28.8001 159.055 29.0801C158.798 29.3601 158.471 29.5001 158.075 29.5001C157.678 29.5001 157.34 29.3601 157.06 29.0801C156.803 28.8001 156.675 28.4618 156.675 28.0651V12.8051C156.675 12.4084 156.803 12.0818 157.06 11.8251C157.34 11.5451 157.678 11.4051 158.075 11.4051C158.495 11.4051 158.833 11.5451 159.09 11.8251C159.346 12.0818 159.475 12.4084 159.475 12.8051V15.2901L158.775 16.0601C158.891 15.4534 159.16 14.8468 159.58 14.2401C160 13.6101 160.525 13.0501 161.155 12.5601C161.785 12.0701 162.485 11.6851 163.255 11.4051C164.025 11.1018 164.83 10.9501 165.67 10.9501Z" fill="#16133D"/>
<path d="M192.024 3.6001C192.421 3.6001 192.748 3.7401 193.004 4.0201C193.284 4.27676 193.424 4.60343 193.424 5.0001V28.0651C193.424 28.4618 193.284 28.8001 193.004 29.0801C192.748 29.3601 192.421 29.5001 192.024 29.5001C191.604 29.5001 191.266 29.3601 191.009 29.0801C190.753 28.8001 190.624 28.4618 190.624 28.0651V24.7401L191.289 24.4951C191.289 25.0551 191.114 25.6501 190.764 26.2801C190.414 26.8868 189.936 27.4584 189.329 27.9951C188.723 28.5318 187.999 28.9751 187.159 29.3251C186.343 29.6751 185.456 29.8501 184.499 29.8501C182.936 29.8501 181.513 29.4418 180.229 28.6251C178.969 27.8084 177.966 26.6884 177.219 25.2651C176.496 23.8418 176.134 22.2201 176.134 20.4001C176.134 18.5568 176.496 16.9234 177.219 15.5001C177.966 14.0768 178.969 12.9684 180.229 12.1751C181.489 11.3584 182.889 10.9501 184.429 10.9501C185.409 10.9501 186.331 11.1134 187.194 11.4401C188.058 11.7668 188.804 12.2101 189.434 12.7701C190.088 13.3301 190.601 13.9484 190.974 14.6251C191.348 15.3018 191.534 15.9784 191.534 16.6551L190.624 16.4451V5.0001C190.624 4.60343 190.753 4.27676 191.009 4.0201C191.266 3.7401 191.604 3.6001 192.024 3.6001ZM184.814 27.2601C185.981 27.2601 187.008 26.9684 187.894 26.3851C188.804 25.7784 189.504 24.9618 189.994 23.9351C190.508 22.8851 190.764 21.7068 190.764 20.4001C190.764 19.0701 190.508 17.8918 189.994 16.8651C189.504 15.8384 188.804 15.0334 187.894 14.4501C187.008 13.8434 185.981 13.5401 184.814 13.5401C183.671 13.5401 182.644 13.8434 181.734 14.4501C180.848 15.0334 180.148 15.8384 179.634 16.8651C179.121 17.8918 178.864 19.0701 178.864 20.4001C178.864 21.6834 179.121 22.8501 179.634 23.9001C180.148 24.9268 180.848 25.7434 181.734 26.3501C182.644 26.9568 183.671 27.2601 184.814 27.2601Z" fill="#16133D"/>
<path fill-rule="evenodd" clip-rule="evenodd" d="M29.0148 16.5C29.1638 16.4 29.3102 16.2954 29.4535 16.1861C30.8437 15.1267 31.8961 13.6814 32.4812 12.0279C33.0663 10.3744 33.1587 8.58471 32.747 6.87901C32.3353 5.17331 31.4375 3.62593 30.1639 2.42715C28.8903 1.22837 27.2965 0.430465 25.5784 0.131544C23.8604 -0.167378 22.093 0.0457211 20.4937 0.744635C18.8944 1.44355 17.5328 2.59781 16.5763 4.06547C16.5506 4.10502 16.5251 4.14476 16.5 4.18467C16.4749 4.14477 16.4494 4.10504 16.4237 4.06549C15.4672 2.59783 14.1056 1.44357 12.5063 0.744658C10.907 0.0457442 9.13961 -0.167354 7.42157 0.131567C5.70353 0.430488 4.10972 1.2284 2.83612 2.42717C1.56252 3.62595 0.664666 5.17333 0.252961 6.87903C-0.158743 8.58473 -0.0663462 10.3744 0.518791 12.0279C1.10393 13.6814 2.15629 15.1268 3.54648 16.1861C3.68983 16.2954 3.83613 16.4 3.98516 16.5C3.83613 16.6 3.68983 16.7046 3.54648 16.8139C2.15629 17.8732 1.10393 19.3185 0.518792 20.9721C-0.0663452 22.6256 -0.158742 24.4153 0.252962 26.121C0.664667 27.8267 1.56252 29.374 2.83612 30.5728C4.10972 31.7716 5.70354 32.5695 7.42157 32.8684C9.13961 33.1674 10.907 32.9543 12.5063 32.2553C14.1056 31.5564 15.4672 30.4022 16.4237 28.9345C16.4494 28.895 16.4749 28.8552 16.5 28.8153C16.5251 28.8552 16.5506 28.895 16.5763 28.9345C17.5328 30.4022 18.8944 31.5564 20.4937 32.2554C22.093 32.9543 23.8604 33.1674 25.5784 32.8685C27.2965 32.5695 28.8903 31.7716 30.1639 30.5728C31.4375 29.3741 32.3353 27.8267 32.747 26.121C33.1587 24.4153 33.0663 22.6256 32.4812 20.9721C31.8961 19.3186 30.8437 17.8733 29.4535 16.8139C29.3102 16.7046 29.1638 16.6 29.0148 16.5ZM16.491 9.00554C16.1266 9.00554 15.7927 8.86354 15.556 8.63298C15.2701 8.38127 15.0639 8.02485 14.9768 7.63604C14.8145 6.91127 14.5238 6.21792 14.1149 5.59051C13.4537 4.57592 12.5125 3.77798 11.4069 3.29483C10.3012 2.81167 9.07947 2.66436 7.8918 2.871C6.70413 3.07764 5.60233 3.62924 4.72189 4.45795C3.84146 5.28666 3.22077 6.35635 2.93616 7.5355C2.65155 8.71464 2.71543 9.95183 3.11993 11.0949C3.52443 12.238 4.25193 13.2371 5.21296 13.9695C5.80272 14.4189 6.46465 14.7558 7.16599 14.9679C7.52553 15.0766 7.84985 15.2873 8.08123 15.5638C8.2829 15.7807 8.41481 16.0733 8.43649 16.3974C8.4388 16.4319 8.43981 16.4661 8.43957 16.5001C8.43981 16.534 8.4388 16.5682 8.43649 16.6026C8.41481 16.9267 8.2829 17.2193 8.08124 17.4362C7.84986 17.7127 7.52554 17.9234 7.16599 18.0321C6.46465 18.2442 5.80272 18.5811 5.21296 19.0305C4.25193 19.7629 3.52443 20.762 3.11993 21.9051C2.71543 23.0482 2.65155 24.2854 2.93616 25.4645C3.22077 26.6436 3.84146 27.7133 4.72189 28.5421C5.60233 29.3708 6.70413 29.9224 7.8918 30.129C9.07947 30.3356 10.3012 30.1883 11.4069 29.7052C12.5125 29.222 13.4537 28.4241 14.1149 27.4095C14.5238 26.7821 14.8145 26.0887 14.9768 25.364C15.0639 24.9751 15.2701 24.6187 15.556 24.367C15.7927 24.1365 16.1266 23.9945 16.491 23.9945L16.4981 23.9945L16.509 23.9944C16.8737 23.9944 17.2078 24.1366 17.4445 24.3675C17.7301 24.6192 17.9361 24.9754 18.0232 25.364C18.1855 26.0887 18.4762 26.7821 18.8851 27.4095C19.5463 28.4241 20.4875 29.222 21.5931 29.7052C22.6988 30.1884 23.9205 30.3357 25.1082 30.129C26.2959 29.9224 27.3977 29.3708 28.2781 28.5421C29.1585 27.7134 29.7792 26.6437 30.0638 25.4645C30.3484 24.2854 30.2846 23.0482 29.8801 21.9051C29.4756 20.762 28.7481 19.7629 27.787 19.0305C27.1973 18.5811 26.5354 18.2442 25.834 18.0321C25.4743 17.9233 25.1498 17.7125 24.9184 17.4358C24.7169 17.2189 24.5852 16.9265 24.5635 16.6026C24.5612 16.5681 24.5602 16.5338 24.5604 16.4999C24.5602 16.466 24.5612 16.4318 24.5635 16.3974C24.5852 16.0735 24.7169 15.7811 24.9184 15.5643C25.1498 15.2875 25.4743 15.0767 25.834 14.9679C26.5354 14.7558 27.1973 14.4189 27.787 13.9695C28.7481 13.2371 29.4756 12.238 29.8801 11.0949C30.2846 9.9518 30.3484 8.71462 30.0638 7.53548C29.7792 6.35633 29.1585 5.28663 28.2781 4.45792C27.3977 3.62921 26.2959 3.07762 25.1082 2.87098C23.9205 2.66433 22.6988 2.81165 21.5931 3.29481C20.4875 3.77796 19.5463 4.5759 18.8851 5.59048C18.4762 6.2179 18.1855 6.91125 18.0232 7.63602C17.9361 8.02459 17.7301 8.38082 17.4445 8.63251C17.2078 8.86336 16.8737 9.00557 16.509 9.00557L16.4981 9.00552L16.491 9.00554Z" fill="#52C29D"/>
</svg>
