<svg width="40" height="37" viewBox="0 0 40 37" fill="none" xmlns="http://www.w3.org/2000/svg">
<path d="M34.2303 17.5039C35.0267 18.7942 34.0717 20.4147 32.4798 20.4722C26.6672 20.6851 20.7405 22.0432 15.1528 24.7169L13.3051 25.7144C13.3051 25.7222 13.2796 25.6736 17.7776 32.9919C18.1904 33.6615 17.9454 34.5168 17.2304 34.9037L15.7731 35.6906C15.0581 36.0767 14.143 35.8476 13.7303 35.1779L9.24365 27.9082L8.51539 28.3021C7.08461 29.0742 5.25525 28.6159 4.429 27.2774L1.06423 21.8255C0.238812 20.487 0.728747 18.7756 2.15952 18.0026L8.79689 14.4175C13.8694 11.3478 18.1678 7.28337 21.3899 2.50218C22.2394 1.24136 24.2166 1.27787 25.0129 2.56821L27.8919 7.23396C29.546 6.34058 31.6619 6.87117 32.6169 8.41865C33.5718 9.96613 33.0047 11.9448 31.3505 12.8381L34.2303 17.5039Z" fill="#D1E7FF"/>
<path d="M32.6168 8.41887C33.5718 9.96636 33.0046 11.945 31.3505 12.8384L27.8918 7.23416C29.546 6.34078 31.6619 6.87137 32.6168 8.41887Z" fill="#D1E7FF"/>
<path d="M25.0129 2.56818C25.4102 3.2125 25.3847 4.0118 24.9451 4.63157C21.3983 9.63111 16.6444 14.1487 10.8305 17.6677L3.05386 21.8681C2.51991 22.1571 2.09724 22.5572 1.80162 23.0194L1.06423 21.8254C0.238812 20.4869 0.728747 18.7755 2.15952 18.0026L8.79689 14.4174C13.8694 11.3478 18.1678 7.28333 21.3899 2.50215C22.2394 1.24133 24.2165 1.27792 25.0129 2.56818Z" fill="#E8F3FF"/>
<path d="M8.79689 14.4177L15.1528 24.7171C13.8791 25.4047 9.78722 27.6145 8.51538 28.3023C7.08461 29.0745 5.25524 28.6161 4.429 27.2776L1.06423 21.8257C0.238812 20.4872 0.728747 18.7758 2.15952 18.0029L8.79689 14.4177Z" fill="#B9DCFF"/>
<path d="M10.8097 17.6794C2.36409 22.2406 2.92378 21.9233 2.65133 22.1216C2.13823 22.4951 1.38937 22.352 1.06411 21.8254C0.23869 20.4869 0.728625 18.7756 2.1594 18.0026L8.79677 14.4175L10.8097 17.6794Z" fill="#D1E7FF"/>
<path d="M14.515 27.683C12.152 28.963 13.8906 28.021 10.4577 29.8744L9.24365 27.9083L13.3051 25.7153L14.515 27.683Z" fill="#B9DCFF"/>
<path d="M32.41 11.9495C32.136 12.3014 31.7798 12.6067 31.3504 12.8382L27.8918 7.23412C28.3212 7.00185 28.782 6.86668 29.2446 6.82007C29.4186 7.10221 32.2582 11.7035 32.41 11.9495Z" fill="#B9DCFF"/>
<path d="M32.231 13.0215C34.8236 11.0404 33.928 7.12262 30.6884 6.31066C29.8419 6.0985 28.9656 6.14263 28.1623 6.42889L25.5882 2.25793C24.5407 0.560599 21.9428 0.515619 20.8274 2.17053C17.6614 6.86843 13.4435 10.8641 8.43582 13.8962C8.15067 14.0685 8.04496 14.4246 8.21369 14.7144C8.24076 14.7608 12.5045 21.6688 12.5328 21.7145C12.7161 22.0116 13.1222 22.1137 13.4402 21.942C13.7579 21.7704 13.8668 21.3903 13.6834 21.093L9.68499 14.6141C14.4599 11.6279 18.6887 7.67449 21.9514 2.83342C22.5349 1.96747 23.8913 1.99435 24.4375 2.87941L33.6546 17.8144C34.2015 18.7006 33.5458 19.8118 32.4541 19.8516C26.3293 20.0748 20.3328 21.5403 14.8502 24.1636C14.8269 24.1747 8.61087 27.5326 8.1828 27.7638C7.07165 28.364 5.64585 28.0066 5.00445 26.9671L1.6396 21.5146C0.998115 20.4752 1.38018 19.1414 2.49125 18.5412L6.54102 16.3539C6.85873 16.1823 6.9676 15.8022 6.78416 15.5049C6.60073 15.2076 6.19433 15.1059 5.8767 15.2775L1.82694 17.4648C0.0814388 18.4076 -0.518773 20.5031 0.488998 22.1361L3.85394 27.5885C4.86179 29.2216 7.10179 29.7829 8.84729 28.8401L9.0005 28.7574L13.1549 35.489C13.7516 36.4559 15.0711 36.7871 16.1053 36.2286L17.5624 35.4416C18.5962 34.8832 18.9498 33.6487 18.3529 32.6815L15.4086 27.9106C15.2252 27.6134 14.8188 27.5116 14.5011 27.6832C14.1834 27.8548 14.0746 28.2349 14.258 28.5321L17.2023 33.303C17.432 33.6751 17.296 34.1503 16.8981 34.3651L15.441 35.1522C15.0431 35.367 14.5353 35.2397 14.3056 34.8675L10.1512 28.1359L15.4703 25.2629C20.6753 22.775 26.4658 21.3136 32.5059 21.0935C34.5992 21.0171 35.8512 18.8873 34.8052 17.1928L32.231 13.0215ZM32.0412 8.72914C32.6971 9.79186 32.4615 11.1106 31.5536 11.9239L28.8395 7.52596C30.0293 7.19945 31.3748 7.64924 32.0412 8.72914ZM38.5387 5.96613L36.8199 6.89454C36.5019 7.06622 36.0958 6.96422 35.9124 6.66708C35.7289 6.36985 35.8379 5.98974 36.1556 5.81814L37.8744 4.88973C38.1924 4.71805 38.5985 4.82005 38.7819 5.11719C38.9653 5.41441 38.8565 5.79452 38.5387 5.96613ZM31.1467 2.42402L31.5659 0.960752C31.6609 0.629194 32.0249 0.432575 32.3796 0.52129C32.734 0.610162 32.9443 0.950964 32.8493 1.28244L32.4301 2.74571C32.3353 3.07641 31.972 3.27404 31.6164 3.18517C31.2621 3.0963 31.0518 2.75558 31.1467 2.42402ZM39.8353 12.6022C39.7557 12.8798 39.4873 13.0629 39.1939 13.0629C39.0737 13.0629 39.1578 13.0757 37.4574 12.6495C37.103 12.5606 36.8927 12.2199 36.9876 11.8883C37.0826 11.5568 37.4469 11.3602 37.8013 11.4489L39.3655 11.8409C39.7198 11.9298 39.9302 12.2706 39.8353 12.6022Z" fill="#007FFC"/>
</svg>
