<svg width="25" height="36" viewBox="0 0 25 36" fill="none" xmlns="http://www.w3.org/2000/svg">
<path d="M21.7934 0.600098C23.21 0.600098 24.3588 1.67485 24.3588 3.0001V33.0001C24.3588 34.3254 23.21 35.4001 21.7934 35.4001H4.15601C2.73941 35.4001 1.59058 34.3254 1.59058 33.0001V3.0001C1.59058 1.67485 2.73941 0.600098 4.15601 0.600098H21.7934Z" fill="#D1E7FF"/>
<path d="M17.0087 13.479C17.6228 13.479 18.1375 13.9118 18.204 14.4825L19.0618 21.8535C19.1396 22.5188 18.5824 23.1 17.8665 23.1H8.08259C7.36668 23.1 6.8095 22.5188 6.88726 21.8535L7.74508 14.4825C7.81162 13.9118 8.32631 13.479 8.94041 13.479H17.0087Z" fill="#B9DCFF"/>
<path d="M21.9146 0.602744C23.9778 0.692519 23.8684 3.60012 21.803 3.60012H13.4557C8.67384 3.60012 4.79738 7.22659 4.79738 11.7001V35.4001H4.15602C2.73917 35.4001 1.59058 34.3256 1.59058 33.0001V3.00012C1.59058 1.67464 2.73917 0.600119 4.15602 0.600119C4.2721 0.600119 21.8205 0.598619 21.9146 0.602744Z" fill="#E8F3FF"/>
<path d="M24.3588 30.1501V33.0001C24.3588 34.3254 23.21 35.4001 21.7934 35.4001H4.15601C2.73941 35.4001 1.59058 34.3254 1.59058 33.0001V30.1501H24.3588Z" fill="#B9DCFF"/>
<path d="M4.79736 30.1501V33.009C4.79736 34.9636 1.59058 35.0635 1.59058 33.0001V30.1501H4.79736Z" fill="#D1E7FF"/>
<path d="M17.0089 15.729C13.1241 15.729 9.94864 18.4649 9.53865 21.9895C9.46513 22.6214 8.89472 23.1 8.21528 23.1H8.0826C7.36668 23.1 6.8095 22.5188 6.88726 21.8535L7.74508 14.4825C7.81162 13.9118 8.32632 13.479 8.94042 13.479H17.0087C17.6224 13.479 18.1376 13.9113 18.204 14.4821C18.2817 15.149 17.7235 15.729 17.0089 15.729Z" fill="#D1E7FF"/>
<path d="M21.7932 0H4.15589C2.38766 0 0.949097 1.3458 0.949097 3V33C0.949097 34.6542 2.38766 36 4.15589 36H21.7932C23.5615 36 25 34.6542 25 33V3C25 1.3458 23.5615 0 21.7932 0ZM21.7932 34.8H4.15589C3.095 34.8 2.23181 33.9925 2.23181 33V3C2.23181 2.00745 3.095 1.2 4.15589 1.2H21.7932C22.8541 1.2 23.7173 2.00745 23.7173 3V29.55H5.35844C5.00424 29.55 4.71708 29.8187 4.71708 30.15C4.71708 30.4814 5.00424 30.75 5.35844 30.75H23.7173V33C23.7173 33.9925 22.8541 34.8 21.7932 34.8ZM14.4176 32.625C14.4176 32.9564 14.1305 33.225 13.7763 33.225H12.1729C11.8187 33.225 11.5315 32.9564 11.5315 32.625C11.5315 32.2937 11.8187 32.025 12.1729 32.025H13.7763C14.1305 32.025 14.4176 32.2937 14.4176 32.625ZM8.0826 23.7H17.8665C18.9634 23.7 19.8183 22.8079 19.6996 21.7883L18.8419 14.4176C18.7398 13.5407 17.9517 12.8794 17.0088 12.8794H16.4151V11.7686C16.415 9.99383 14.8716 8.55 12.9746 8.55C11.0775 8.55 9.53416 9.99383 9.53416 11.7686V12.8793H8.94042C7.99746 12.8793 7.20948 13.5406 7.10734 14.4176L6.2496 21.7883C6.13087 22.8084 6.98636 23.7 8.0826 23.7ZM7.5247 21.9182L8.38244 14.5475C8.41355 14.2806 8.65333 14.0793 8.94034 14.0793H9.53408V15.0155C9.53408 15.3469 9.82125 15.6155 10.1754 15.6155C10.5296 15.6155 10.8168 15.3469 10.8168 15.0155V11.7686C10.8168 10.6556 11.7847 9.75 12.9745 9.75C14.1643 9.75 15.1322 10.6555 15.1322 11.7686V12.8794H12.358C12.0038 12.8794 11.7166 13.148 11.7166 13.4794C11.7166 13.8107 12.0038 14.0794 12.358 14.0794H15.1322V15.0155C15.1322 15.3469 15.4193 15.6155 15.7735 15.6155C16.1277 15.6155 16.4149 15.3469 16.4149 15.0155V14.0794H17.0086C17.2956 14.0794 17.5354 14.2807 17.5665 14.5475L18.4243 21.9182C18.4603 22.2284 18.202 22.5 17.8664 22.5H8.0826C7.74846 22.5 7.48855 22.2296 7.5247 21.9182Z" fill="#007FFC"/>
</svg>
