<svg xmlns="http://www.w3.org/2000/svg">
    <symbol id="instagram" viewBox="0 0 22 22">
        <path d="M11.0025 5.35948C7.88098 5.35948 5.36319 7.87783 5.36319 11C5.36319 14.1222 7.88098 16.6405 11.0025 16.6405C14.1239 16.6405 16.6417 14.1222 16.6417 11C16.6417 7.87783 14.1239 5.35948 11.0025 5.35948ZM11.0025 14.6671C8.98528 14.6671 7.3362 13.0225 7.3362 11C7.3362 8.97746 8.98037 7.33292 11.0025 7.33292C13.0245 7.33292 14.6687 8.97746 14.6687 11C14.6687 13.0225 13.0196 14.6671 11.0025 14.6671ZM18.1877 5.12875C18.1877 5.8602 17.5988 6.44438 16.8724 6.44438C16.1411 6.44438 15.5571 5.85529 15.5571 5.12875C15.5571 4.40221 16.146 3.81312 16.8724 3.81312C17.5988 3.81312 18.1877 4.40221 18.1877 5.12875ZM21.9227 6.46402C21.8393 4.70166 21.4368 3.14058 20.146 1.8544C18.8601 0.568225 17.2994 0.165681 15.5374 0.0773179C13.7215 -0.0257726 8.27853 -0.0257726 6.46258 0.0773179C4.70552 0.160772 3.14479 0.563316 1.85399 1.84949C0.56319 3.13567 0.165644 4.69675 0.0773006 6.45911C-0.0257669 8.27547 -0.0257669 13.7196 0.0773006 15.536C0.160736 17.2983 0.56319 18.8594 1.85399 20.1456C3.14479 21.4318 4.70061 21.8343 6.46258 21.9227C8.27853 22.0258 13.7215 22.0258 15.5374 21.9227C17.2994 21.8392 18.8601 21.4367 20.146 20.1456C21.4319 18.8594 21.8344 17.2983 21.9227 15.536C22.0258 13.7196 22.0258 8.28037 21.9227 6.46402ZM19.5767 17.4849C19.1939 18.4471 18.4528 19.1883 17.4859 19.5761C16.038 20.1505 12.6025 20.018 11.0025 20.018C9.40245 20.018 5.96196 20.1456 4.51902 19.5761C3.55705 19.1932 2.81595 18.452 2.42822 17.4849C1.85399 16.0367 1.9865 12.6004 1.9865 11C1.9865 9.39964 1.8589 5.95838 2.42822 4.51512C2.81104 3.55294 3.55215 2.81167 4.51902 2.42385C5.96687 1.84949 9.40245 1.98204 11.0025 1.98204C12.6025 1.98204 16.0429 1.8544 17.4859 2.42385C18.4479 2.80676 19.189 3.54803 19.5767 4.51512C20.1509 5.96329 20.0184 9.39964 20.0184 11C20.0184 12.6004 20.1509 16.0416 19.5767 17.4849Z"
        fill="#16133D" />
    </symbol>
    <symbol id="facebook" viewBox="0 0 12 22">
        <path d="M11.0107 12.375L11.6218 8.39352H7.80141V5.8098C7.80141 4.72055 8.33508 3.65879 10.0461 3.65879H11.7829V0.268984C11.7829 0.268984 10.2068 0 8.69988 0C5.55371 0 3.49723 1.90695 3.49723 5.35906V8.39352H0V12.375H3.49723V22H7.80141V12.375H11.0107Z"
        fill="#16133D" />
    </symbol>
    <symbol id="github" viewBox="0 0 22 22">
        <path d="M7.35847 17.7144C7.35847 17.8053 7.25645 17.8781 7.12782 17.8781C6.98145 17.8918 6.87944 17.819 6.87944 17.7144C6.87944 17.6234 6.98145 17.5506 7.11008 17.5506C7.24314 17.537 7.35847 17.6097 7.35847 17.7144ZM5.97903 17.5097C5.94798 17.6006 6.03669 17.7053 6.16976 17.7326C6.28508 17.7781 6.41815 17.7326 6.44476 17.6416C6.47137 17.5506 6.3871 17.446 6.25403 17.405C6.13871 17.3732 6.01008 17.4187 5.97903 17.5097ZM7.93952 17.4323C7.81089 17.4642 7.72218 17.5506 7.73548 17.6552C7.74879 17.7462 7.86411 17.8054 7.99718 17.7735C8.12581 17.7417 8.21452 17.6552 8.20121 17.5642C8.1879 17.4778 8.06814 17.4187 7.93952 17.4323ZM10.8581 0C4.70605 0 0 4.79025 0 11.0999C0 16.1449 3.09597 20.4621 7.51815 21.9815C8.08589 22.0861 8.28548 21.7267 8.28548 21.431C8.28548 21.149 8.27218 19.5932 8.27218 18.6378C8.27218 18.6378 5.16734 19.3202 4.51532 17.2822C4.51532 17.2822 4.00968 15.9584 3.28226 15.6172C3.28226 15.6172 2.26653 14.903 3.35323 14.9166C3.35323 14.9166 4.45766 15.0076 5.06532 16.0903C6.03669 17.8463 7.66452 17.3413 8.29879 17.0411C8.40081 16.3132 8.68911 15.8083 9.00847 15.508C6.52903 15.226 4.02742 14.8575 4.02742 10.4812C4.02742 9.23021 4.36452 8.60243 5.07419 7.80178C4.95887 7.50609 4.58185 6.28692 5.18952 4.71291C6.11653 4.41722 8.25 5.94118 8.25 5.94118C9.1371 5.68643 10.0907 5.55451 11.0355 5.55451C11.9802 5.55451 12.9339 5.68643 13.821 5.94118C13.821 5.94118 15.9544 4.41267 16.8815 4.71291C17.4891 6.29147 17.1121 7.50609 16.9968 7.80178C17.7065 8.60698 18.1411 9.23476 18.1411 10.4812C18.1411 14.8712 15.5286 15.2214 13.0492 15.508C13.4573 15.8674 13.8032 16.5498 13.8032 17.6188C13.8032 19.1519 13.7899 21.0489 13.7899 21.4219C13.7899 21.7176 13.994 22.077 14.5573 21.9724C18.9927 20.4621 22 16.1449 22 11.0999C22 4.79025 17.0101 0 10.8581 0ZM4.31129 15.69C4.25363 15.7355 4.26694 15.8401 4.34234 15.9266C4.41331 15.9993 4.51532 16.0312 4.57298 15.972C4.63064 15.9266 4.61734 15.8219 4.54194 15.7355C4.47097 15.6627 4.36895 15.6309 4.31129 15.69ZM3.83226 15.3215C3.80121 15.3807 3.84556 15.4534 3.93427 15.4989C4.00524 15.5444 4.09395 15.5308 4.125 15.4671C4.15605 15.408 4.11169 15.3352 4.02298 15.2897C3.93427 15.2624 3.86331 15.276 3.83226 15.3215ZM5.26935 16.941C5.19839 17.0002 5.225 17.1366 5.32702 17.2231C5.42903 17.3277 5.55766 17.3413 5.61532 17.2686C5.67298 17.2094 5.64637 17.0729 5.55766 16.9865C5.46008 16.8819 5.32702 16.8682 5.26935 16.941ZM4.76371 16.2723C4.69274 16.3178 4.69274 16.4361 4.76371 16.5407C4.83468 16.6453 4.95444 16.6908 5.0121 16.6453C5.08306 16.5862 5.08306 16.4679 5.0121 16.3633C4.95 16.2586 4.83468 16.2132 4.76371 16.2723Z"
        fill="#16133D" />
    </symbol>
    <symbol id="dribble" viewBox="0 0 22 22">
        <path d="M11 0C4.93456 0 0 4.93456 0 11C0 17.0654 4.93456 22 11 22C17.0654 22 22 17.0654 22 11C22 4.93456 17.0654 0 11 0ZM18.2729 5.07269C19.5815 6.6715 20.3739 8.70787 20.3946 10.9255C20.0848 10.86 16.9785 10.23 13.8521 10.6231C13.597 10.0003 13.3562 9.45246 13.0264 8.77734C16.5003 7.359 18.0748 5.34063 18.2729 5.07269ZM17.2283 3.98617C17.0594 4.22688 15.645 6.12789 12.304 7.38016C10.7644 4.55138 9.05792 2.22754 8.79823 1.8798C11.7778 1.16156 14.9177 1.93613 17.2283 3.98617ZM7.00545 2.51137C7.25317 2.85108 8.93213 5.17781 10.4889 7.94524C6.09396 9.11235 2.22298 9.09554 1.80276 9.08999C2.41202 6.17442 4.37685 3.75122 7.00545 2.51137ZM1.60431 11.0143C1.60431 10.9183 1.60622 10.8226 1.6091 10.7272C2.02019 10.7356 6.5733 10.7943 11.2654 9.3901C11.5344 9.9165 11.7913 10.4508 12.0272 10.9846C8.62963 11.9416 5.54276 14.6894 4.01975 17.2966C2.51909 15.6309 1.60431 13.4275 1.60431 11.0143ZM5.23285 18.4266C6.21429 16.4203 8.87784 13.8305 12.6658 12.5382C13.9849 15.9661 14.5304 18.839 14.6701 19.6633C11.649 20.9502 8.01625 20.5971 5.23285 18.4266ZM16.2497 18.8031C16.1534 18.2316 15.6533 15.4811 14.4244 12.1041C17.3687 11.6328 19.9555 12.4043 20.2769 12.5057C19.8581 15.12 18.3575 17.3778 16.2497 18.8031Z"
        fill="#16133D" />
    </symbol>
    <symbol id="x" viewBox="0 0 23 22">
        <path fill-rule="evenodd" clip-rule="evenodd" d="M22.495 22L13.698 9.17799L13.713 9.19001L21.6448 0H18.9942L12.5328 7.48L7.40163 0H0.450092L8.66291 11.971L8.66192 11.97L0 22H2.65059L9.83419 13.678L15.5435 22H22.495ZM6.3514 1.99999L18.6941 20H16.5937L4.24097 1.99999H6.3514Z"
        fill="#16133D" />
    </symbol>
</svg>