<svg width="24" height="24" viewBox="0 0 24 24" fill="none" xmlns="http://www.w3.org/2000/svg">
<path d="M5.92457 23H1.3634V8.31173H5.92457V23ZM3.64153 6.30811C2.18302 6.30811 1 5.10005 1 3.64153C1 2.94095 1.2783 2.26907 1.77369 1.77369C2.26907 1.2783 2.94095 1 3.64153 1C4.34211 1 5.01399 1.2783 5.50938 1.77369C6.00476 2.26907 6.28306 2.94095 6.28306 3.64153C6.28306 5.10005 5.09956 6.30811 3.64153 6.30811ZM22.9956 23H18.4442V15.8498C18.4442 14.1458 18.4099 11.9605 16.0728 11.9605C13.7014 11.9605 13.338 13.8118 13.338 15.7271V23H8.78169V8.31173H13.1563V10.3153H13.2201C13.829 9.1613 15.3165 7.94341 17.5357 7.94341C22.1519 7.94341 23.0005 10.9832 23.0005 14.9315V23H22.9956Z" fill="#565656"/>
</svg>
