<svg width="0" height="0" class="hidden">
    <symbol xmlns="http://www.w3.org/2000/svg" viewBox="0 0 24 24" id="ig">
        <path fill="currentColor" fill-rule="evenodd" clip-rule="evenodd"
            d="M1 7.11111C1 5.49034 1.64385 3.93596 2.7899 2.7899C3.93596 1.64385 5.49034 1 7.11111 1H16.8889C18.5097 1 20.064 1.64385 21.2101 2.7899C22.3562 3.93596 23 5.49034 23 7.11111V16.8889C23 18.5097 22.3562 20.064 21.2101 21.2101C20.064 22.3562 18.5097 23 16.8889 23H7.11111C5.49034 23 3.93596 22.3562 2.7899 21.2101C1.64385 20.064 1 18.5097 1 16.8889V7.11111ZM7.11111 3.44444C6.13865 3.44444 5.20602 3.83075 4.51839 4.51839C3.83075 5.20602 3.44444 6.13865 3.44444 7.11111V16.8889C3.44444 17.8613 3.83075 18.794 4.51839 19.4816C5.20602 20.1692 6.13865 20.5556 7.11111 20.5556H16.8889C17.8613 20.5556 18.794 20.1692 19.4816 19.4816C20.1692 18.794 20.5556 17.8613 20.5556 16.8889V7.11111C20.5556 6.13865 20.1692 5.20602 19.4816 4.51839C18.794 3.83075 17.8613 3.44444 16.8889 3.44444H7.11111ZM16.3963 6.15044C16.3963 5.82629 16.5251 5.51541 16.7543 5.2862C16.9835 5.05699 17.2944 4.92822 17.6186 4.92822H17.6308C17.9549 4.92822 18.2658 5.05699 18.495 5.2862C18.7242 5.51541 18.853 5.82629 18.853 6.15044C18.853 6.4746 18.7242 6.78547 18.495 7.01469C18.2658 7.2439 17.9549 7.37267 17.6308 7.37267H17.6186C17.2944 7.37267 16.9835 7.2439 16.7543 7.01469C16.5251 6.78547 16.3963 6.4746 16.3963 6.15044ZM12 8.33333C11.0275 8.33333 10.0949 8.71964 9.40727 9.40727C8.71964 10.0949 8.33333 11.0275 8.33333 12C8.33333 12.9725 8.71964 13.9051 9.40727 14.5927C10.0949 15.2804 11.0275 15.6667 12 15.6667C12.9725 15.6667 13.9051 15.2804 14.5927 14.5927C15.2804 13.9051 15.6667 12.9725 15.6667 12C15.6667 11.0275 15.2804 10.0949 14.5927 9.40727C13.9051 8.71964 12.9725 8.33333 12 8.33333ZM5.88889 12C5.88889 10.3792 6.53274 8.82485 7.67879 7.67879C8.82485 6.53274 10.3792 5.88889 12 5.88889C13.6208 5.88889 15.1752 6.53274 16.3212 7.67879C17.4673 8.82485 18.1111 10.3792 18.1111 12C18.1111 13.6208 17.4673 15.1752 16.3212 16.3212C15.1752 17.4673 13.6208 18.1111 12 18.1111C10.3792 18.1111 8.82485 17.4673 7.67879 16.3212C6.53274 15.1752 5.88889 13.6208 5.88889 12Z"></path>
    </symbol>
    <symbol xmlns="http://www.w3.org/2000/svg" viewBox="0 0 24 24" id="fb">
        <path fill="currentColor"
            d="M17.4231 1.15865V4.64904H15.3474C14.5893 4.64904 14.0781 4.80769 13.8137 5.125C13.5493 5.44231 13.4171 5.91827 13.4171 6.55288V9.05168H17.2909L16.7752 12.9651H13.4171V23H9.37139V12.9651H6V9.05168H9.37139V6.16947C9.37139 4.53005 9.82973 3.25861 10.7464 2.35517C11.6631 1.45172 12.8838 1 14.4087 1C15.7043 1 16.7091 1.05288 17.4231 1.15865Z"></path>
    </symbol>
    <symbol xmlns="http://www.w3.org/2000/svg" viewBox="0 0 25 24" id="x">
        <g clip-path="url(#clip0_22617_62)">
            <path fill="currentColor"
                d="M14.5745 10.3863L22.148 1H18.7677L12.9872 8.1687L7.859 1H0.5L9.0866 13.001L1.017 23H4.3984L10.6739 15.223L16.241 23H23.6L14.5745 10.3863ZM11.9565 13.6313L10.367 11.4104L4.196 2.7897H6.737L11.7178 9.7384L13.3051 11.9604L19.9249 21.2103H17.3839L11.9565 13.6313Z"></path>
        </g>
        <defs>
            <clipPath id="clip0_22617_62">
                <rect width="24" height="24" fill="white" transform="translate(0.5)"></rect>
            </clipPath>
        </defs>
    </symbol>
    <symbol xmlns="http://www.w3.org/2000/svg" viewBox="0 0 24 24" id="li">
        <path fill="currentColor"
            d="M5.92457 23H1.3634V8.31173H5.92457V23ZM3.64153 6.30811C2.18302 6.30811 1 5.10005 1 3.64153C1 2.94095 1.2783 2.26907 1.77369 1.77369C2.26907 1.2783 2.94095 1 3.64153 1C4.34211 1 5.01399 1.2783 5.50938 1.77369C6.00476 2.26907 6.28306 2.94095 6.28306 3.64153C6.28306 5.10005 5.09956 6.30811 3.64153 6.30811ZM22.9956 23H18.4442V15.8498C18.4442 14.1458 18.4099 11.9605 16.0728 11.9605C13.7014 11.9605 13.338 13.8118 13.338 15.7271V23H8.78169V8.31173H13.1563V10.3153H13.2201C13.829 9.1613 15.3165 7.94341 17.5357 7.94341C22.1519 7.94341 23.0005 10.9832 23.0005 14.9315V23H22.9956Z"></path>
    </symbol>
</svg>