<svg width="24" height="24" viewBox="0 0 24 24" fill="none" xmlns="http://www.w3.org/2000/svg">
<path fill-rule="evenodd" clip-rule="evenodd" d="M1 7.11111C1 5.49034 1.64385 3.93596 2.7899 2.7899C3.93596 1.64385 5.49034 1 7.11111 1H16.8889C18.5097 1 20.064 1.64385 21.2101 2.7899C22.3562 3.93596 23 5.49034 23 7.11111V16.8889C23 18.5097 22.3562 20.064 21.2101 21.2101C20.064 22.3562 18.5097 23 16.8889 23H7.11111C5.49034 23 3.93596 22.3562 2.7899 21.2101C1.64385 20.064 1 18.5097 1 16.8889V7.11111ZM7.11111 3.44444C6.13865 3.44444 5.20602 3.83075 4.51839 4.51839C3.83075 5.20602 3.44444 6.13865 3.44444 7.11111V16.8889C3.44444 17.8613 3.83075 18.794 4.51839 19.4816C5.20602 20.1692 6.13865 20.5556 7.11111 20.5556H16.8889C17.8613 20.5556 18.794 20.1692 19.4816 19.4816C20.1692 18.794 20.5556 17.8613 20.5556 16.8889V7.11111C20.5556 6.13865 20.1692 5.20602 19.4816 4.51839C18.794 3.83075 17.8613 3.44444 16.8889 3.44444H7.11111ZM16.3963 6.15044C16.3963 5.82629 16.5251 5.51541 16.7543 5.2862C16.9835 5.05699 17.2944 4.92822 17.6186 4.92822H17.6308C17.9549 4.92822 18.2658 5.05699 18.495 5.2862C18.7242 5.51541 18.853 5.82629 18.853 6.15044C18.853 6.4746 18.7242 6.78547 18.495 7.01469C18.2658 7.2439 17.9549 7.37267 17.6308 7.37267H17.6186C17.2944 7.37267 16.9835 7.2439 16.7543 7.01469C16.5251 6.78547 16.3963 6.4746 16.3963 6.15044ZM12 8.33333C11.0275 8.33333 10.0949 8.71964 9.40727 9.40727C8.71964 10.0949 8.33333 11.0275 8.33333 12C8.33333 12.9725 8.71964 13.9051 9.40727 14.5927C10.0949 15.2804 11.0275 15.6667 12 15.6667C12.9725 15.6667 13.9051 15.2804 14.5927 14.5927C15.2804 13.9051 15.6667 12.9725 15.6667 12C15.6667 11.0275 15.2804 10.0949 14.5927 9.40727C13.9051 8.71964 12.9725 8.33333 12 8.33333ZM5.88889 12C5.88889 10.3792 6.53274 8.82485 7.67879 7.67879C8.82485 6.53274 10.3792 5.88889 12 5.88889C13.6208 5.88889 15.1752 6.53274 16.3212 7.67879C17.4673 8.82485 18.1111 10.3792 18.1111 12C18.1111 13.6208 17.4673 15.1752 16.3212 16.3212C15.1752 17.4673 13.6208 18.1111 12 18.1111C10.3792 18.1111 8.82485 17.4673 7.67879 16.3212C6.53274 15.1752 5.88889 13.6208 5.88889 12Z" fill="#565656"/>
</svg>
