<svg width="190" height="16" viewBox="0 0 190 16" fill="none" xmlns="http://www.w3.org/2000/svg">
<g clip-path="url(#clip0_22616_3)">
<path d="M18.4731 0.173206V15.8268H15.8069V5.71583C15.8069 5.31168 15.8294 4.87506 15.8744 4.40595L10.9581 13.2936C10.7256 13.7194 10.3693 13.9323 9.88932 13.9323H9.46182C8.98182 13.9323 8.62556 13.7194 8.39306 13.2936L3.42053 4.37348C3.44303 4.61164 3.46178 4.84619 3.47678 5.07713C3.49178 5.30807 3.49928 5.52097 3.49928 5.71583V15.8268H0.833008V0.173206H3.11677C3.25178 0.173206 3.36803 0.176815 3.46553 0.184032C3.56303 0.191248 3.64928 0.209291 3.72428 0.238159C3.80678 0.267027 3.87803 0.313937 3.93803 0.37889C4.00553 0.443842 4.06928 0.530446 4.12928 0.6387L9.00057 9.33153C9.12807 9.56247 9.24432 9.80063 9.34932 10.046C9.46182 10.2914 9.57057 10.544 9.67557 10.8038C9.78057 10.5368 9.88932 10.2806 10.0018 10.0352C10.1143 9.78259 10.2343 9.54082 10.3618 9.30988L15.1656 0.6387C15.2256 0.530446 15.2894 0.443842 15.3569 0.37889C15.4244 0.313937 15.4956 0.267027 15.5706 0.238159C15.6531 0.209291 15.7431 0.191248 15.8406 0.184032C15.9381 0.176815 16.0544 0.173206 16.1894 0.173206H18.4731Z" fill="black"/>
<path d="M41.9478 9.9161L39.9678 4.70907C39.8703 4.47812 39.7691 4.20388 39.6641 3.88633C39.5591 3.56879 39.4541 3.22598 39.3491 2.85792C39.2516 3.22598 39.1503 3.57239 39.0453 3.89716C38.9403 4.2147 38.8391 4.49256 38.7416 4.73072L36.7728 9.9161H41.9478ZM47.2916 15.8268H44.9516C44.6891 15.8268 44.4753 15.7654 44.3103 15.6428C44.1453 15.5129 44.0216 15.3541 43.9391 15.1664L42.7241 11.9729H35.9853L34.7703 15.1664C34.7103 15.3324 34.594 15.484 34.4215 15.6211C34.249 15.7582 34.0353 15.8268 33.7803 15.8268H31.4178L37.8191 0.173206H40.9016L47.2916 15.8268Z" fill="black"/>
<path d="M73.9394 0.173206V15.8268H72.3869C72.1469 15.8268 71.9444 15.7907 71.7794 15.7185C71.6218 15.6392 71.4681 15.5092 71.3181 15.3288L62.8243 4.8931C62.8693 5.36942 62.8918 5.80965 62.8918 6.2138V15.8268H60.2255V0.173206H61.8118C61.9393 0.173206 62.048 0.180423 62.138 0.194857C62.2355 0.202074 62.318 0.223725 62.3855 0.25981C62.4605 0.288678 62.5318 0.335588 62.5993 0.400541C62.6668 0.458276 62.7418 0.537663 62.8243 0.6387L71.3519 11.1177C71.3294 10.8651 71.3106 10.6161 71.2956 10.3708C71.2806 10.1254 71.2731 9.89806 71.2731 9.68877V0.173206H73.9394Z" fill="black"/>
<path d="M91.8497 15.8268H88.8121V0.173206H91.8497V15.8268Z" fill="black"/>
<path d="M109.779 2.48985V7.12314H115.877V9.45061H109.779V15.8268H106.742V0.173206H117.002V2.48985H109.779Z" fill="black"/>
<path d="M133.774 2.48985V6.83085H139.466V9.07172H133.774V13.4993H140.996V15.8268H130.736V0.173206H140.996V2.48985H133.774Z" fill="black"/>
<path d="M163.591 3.0203C163.501 3.17185 163.403 3.28372 163.298 3.35589C163.201 3.42084 163.077 3.45332 162.927 3.45332C162.77 3.45332 162.597 3.39919 162.41 3.29093C162.23 3.17546 162.012 3.04917 161.757 2.91204C161.502 2.77492 161.202 2.65223 160.857 2.54398C160.52 2.42851 160.118 2.37077 159.653 2.37077C159.233 2.37077 158.866 2.42129 158.551 2.52233C158.236 2.61615 157.97 2.74966 157.752 2.92287C157.542 3.09608 157.385 3.30537 157.28 3.55074C157.175 3.7889 157.122 4.05232 157.122 4.341C157.122 4.70907 157.227 5.01579 157.437 5.26116C157.655 5.50654 157.94 5.71583 158.292 5.88904C158.645 6.06225 159.046 6.21741 159.496 6.35453C159.946 6.49165 160.407 6.6396 160.88 6.79838C161.352 6.94993 161.813 7.13036 162.263 7.33965C162.713 7.54172 163.115 7.80153 163.467 8.11908C163.82 8.42941 164.101 8.81191 164.311 9.26658C164.528 9.72124 164.637 10.2733 164.637 10.9229C164.637 11.6301 164.51 12.2941 164.255 12.9147C164.007 13.5282 163.64 14.0659 163.152 14.5277C162.672 14.9824 162.083 15.3433 161.386 15.6103C160.688 15.8701 159.89 16 158.99 16C158.472 16 157.962 15.9495 157.46 15.8484C156.957 15.7546 156.473 15.6175 156.008 15.4371C155.551 15.2567 155.12 15.0401 154.715 14.7876C154.31 14.535 153.95 14.2535 153.635 13.9432L154.523 12.5467C154.598 12.4456 154.696 12.3627 154.816 12.2977C154.936 12.2255 155.063 12.1894 155.198 12.1894C155.386 12.1894 155.588 12.2652 155.806 12.4168C156.023 12.5611 156.282 12.7235 156.582 12.9039C156.882 13.0843 157.231 13.2503 157.628 13.4019C158.033 13.5462 158.517 13.6184 159.08 13.6184C159.942 13.6184 160.61 13.4235 161.082 13.0338C161.555 12.6369 161.791 12.0704 161.791 11.3342C161.791 10.9229 161.682 10.5873 161.465 10.3275C161.255 10.0677 160.973 9.85115 160.621 9.67794C160.268 9.49752 159.867 9.34596 159.417 9.22327C158.967 9.10059 158.51 8.96707 158.045 8.82273C157.58 8.67839 157.122 8.50519 156.672 8.30311C156.222 8.10104 155.821 7.83762 155.468 7.51286C155.116 7.18809 154.831 6.78394 154.613 6.30041C154.403 5.80965 154.298 5.20704 154.298 4.49256C154.298 3.92242 154.415 3.36671 154.647 2.82544C154.887 2.28417 155.232 1.80424 155.682 1.38566C156.132 0.967072 156.687 0.631483 157.347 0.37889C158.007 0.126297 158.765 0 159.62 0C160.58 0 161.465 0.144339 162.275 0.433017C163.085 0.721695 163.775 1.12584 164.345 1.64547L163.591 3.0203Z" fill="black"/>
<path d="M189.89 2.56563H184.985V15.8268H181.958V2.56563H177.053V0.173206H189.89V2.56563Z" fill="black"/>
</g>
<defs>
<clipPath id="clip0_22616_3">
<rect width="190" height="16" fill="white"/>
</clipPath>
</defs>
</svg>
