<svg width="24" height="24" viewBox="0 0 24 24" fill="none" xmlns="http://www.w3.org/2000/svg">
<path fill-rule="evenodd" clip-rule="evenodd" d="M18.5148 16.2233L23.7083 21.1181C23.9402 21.3609 23.9288 21.7327 23.6823 21.9624L22.7735 22.819C22.6516 22.9348 22.4857 23 22.3126 23C22.1395 23 21.9735 22.9348 21.8516 22.819L16.6582 17.9242C16.5145 17.7887 16.3842 17.6413 16.2687 17.4837L15.2949 16.26C13.6837 17.4726 11.6829 18.1328 9.62103 18.1323C5.37226 18.1462 1.68024 15.3838 0.730756 11.4807C-0.218731 7.57752 1.82771 3.5752 5.65854 1.84323C9.48936 0.111251 14.0822 1.11185 16.7179 4.25264C19.3536 7.39343 19.3288 11.8362 16.6582 14.9507L17.9565 15.795C18.1593 15.9173 18.3466 16.061 18.5148 16.2233ZM3.12985 9.56655C3.12985 12.9457 6.03634 15.685 9.62168 15.685C11.3434 15.685 12.9946 15.0404 14.2121 13.893C15.4296 12.7455 16.1135 11.1893 16.1135 9.56655C16.1135 6.18741 13.207 3.44807 9.62168 3.44807C6.03634 3.44807 3.12985 6.18741 3.12985 9.56655Z" fill="black"/>
</svg>
